<?xml version="1.0" standalone="no"?>
<!DOCTYPE svg PUBLIC "-//W3C//DTD SVG 20010904//EN"
 "http://www.w3.org/TR/2001/REC-SVG-20010904/DTD/svg10.dtd">
<svg version="1.0" xmlns="http://www.w3.org/2000/svg"
 width="1024.000000pt" height="1024.000000pt" viewBox="0 0 1024.000000 1024.000000"
 preserveAspectRatio="xMidYMid meet">

<g transform="translate(0.000000,1024.000000) scale(0.100000,-0.100000)"
fill="#000000" stroke="none">
<path d="M4865 9790 c-1571 -91 -2956 -932 -3768 -2290 -94 -157 -244 -464
-316 -645 -442 -1122 -437 -2369 14 -3489 57 -142 200 -432 280 -571 360 -623
853 -1148 1455 -1550 630 -420 1294 -663 2071 -756 155 -19 236 -23 514 -23
343 0 471 9 755 55 1376 220 2594 1060 3295 2274 80 139 223 429 280 571 451
1120 456 2374 13 3489 -424 1065 -1229 1940 -2263 2457 -700 351 -1541 523
-2330 478z m2044 -1627 c-142 -127 -251 -295 -334 -514 -88 -229 -141 -494
-165 -824 -20 -264 -85 -507 -199 -735 -121 -244 -248 -412 -499 -657 l-175
-172 52 -64 c199 -251 519 -447 884 -542 239 -62 317 -70 659 -70 168 0 306 0
305 -1 -1 -1 -150 -51 -332 -112 -522 -174 -849 -237 -1301 -249 -414 -11
-726 33 -1046 147 -617 221 -1066 704 -1287 1385 -123 377 -367 645 -721 790
l-81 33 153 79 c84 44 187 101 228 127 128 79 191 105 278 118 235 34 522
-102 792 -376 41 -42 78 -76 81 -76 3 0 30 42 59 93 111 195 294 423 487 607
529 502 1211 844 2048 1025 83 18 152 31 153 30 2 -2 -15 -21 -39 -42z m-4034
-3424 c477 -94 978 -263 1485 -499 236 -110 426 -214 715 -390 435 -267 819
-447 1258 -591 257 -85 639 -175 850 -200 7 -1 -19 -5 -58 -10 -130 -14 -413
12 -656 61 -372 75 -919 250 -1497 477 l-123 49 -148 -150 -148 -149 -79 21
c-44 12 -166 46 -273 77 -477 135 -1042 238 -1203 219 l-53 -6 -87 263 c-48
145 -95 291 -104 324 -9 33 -21 67 -25 75 -9 16 -99 431 -99 456 0 18 30 15
245 -27z m3830 -859 c324 -55 701 -148 712 -176 2 -7 -7 -47 -20 -91 -14 -43
-40 -138 -58 -210 -28 -108 -37 -133 -52 -133 -56 0 -456 110 -681 187 -204
70 -466 182 -466 198 0 19 45 133 64 163 27 43 50 64 91 87 41 23 181 14 410
-25z"/>
</g>
</svg>
